# xmcd
#
# Track frame offsets:
# 150
# 11020
# 22532
# 36626
# 49074
# 60440
# 71081
# 81894
# 97186
# 107198
# 120162
# 131609
#
# Disc length: 1936 seconds
#
#
# Revision: 2
# Processed by: cddbd v1.5.1PL2 Copyright (c) Steve Scherf et al.
# Submitted via: FreeRIP 2.945 
#
DISCID=9a078e0c
DTITLE=Various Artist - Country Ballads
DYEAR=1900
DGENRE=Country
TTITLE0=Sammi Smith - Help Me Make It Throught The Night
TTITLE1=Skeeter Davis - Crying Time
TTITLE2=Billie Jo Spears - Which Way You Goin' Billy
TTITLE3=Lynn Anderson - Stand By You Man
TTITLE4=Dolly Parton - Makin' Belive
TTITLE5=Freddy Fender - A Man Can Cry
TTITLE6=Patsy Cline - I Cried All The Way To The Altar
TTITLE7=Bobby Bare - Leaving On A Jet Plane
TTITLE8=Johnny Cash - Goodbye Little Darling
TTITLE9=Charlie Rich - I Take It On Home
TTITLE10=Willie Nelson - Suffering In Silence
TTITLE11=Kenny Roges - I'm Gonna Sing You A Sad Song Suzy
EXTD=Country Ballads is a country album with: Dolly Parton, Freddy Fender, Johnny Cash, Willie Nelson, Kenny Roges and...\nIt was made by A.S.H.A, Mihai Iusan
EXTT0=
EXTT1=
EXTT2=
EXTT3=
EXTT4=
EXTT5=
EXTT6=
EXTT7=
EXTT8=
EXTT9=
EXTT10=
EXTT11=
PLAYORDER=
